<svg width="243" height="64" viewBox="0 0 243 64" fill="none" xmlns="http://www.w3.org/2000/svg">
<rect width="243" height="64" rx="10" fill="#4A4BC7"/>
<path d="M43.208 42L35.792 30.948V42H27.8V16.512H35.792V27.24L43.1 16.512H52.136L43.352 28.716L52.712 42H43.208ZM77.9078 21.696L64.9118 51.72H56.1638L61.2758 40.992L52.8158 21.696H61.7078L65.5238 31.992L69.0878 21.696H77.9078ZM100.831 21.696V42H92.8391V38.904C92.2151 39.864 91.3751 40.644 90.3191 41.244C89.2871 41.844 88.0511 42.144 86.6111 42.144C84.2831 42.144 82.4591 41.364 81.1391 39.804C79.8431 38.244 79.1951 36.132 79.1951 33.468V21.696H87.1511V32.46C87.1511 33.42 87.4031 34.188 87.9071 34.764C88.4351 35.316 89.1311 35.592 89.9951 35.592C90.8831 35.592 91.5791 35.316 92.0831 34.764C92.5871 34.188 92.8391 33.42 92.8391 32.46V21.696H100.831ZM112.433 15.36V42H104.441V15.36H112.433ZM135.698 31.668C135.698 32.22 135.662 32.748 135.59 33.252H122.738C122.858 35.004 123.59 35.88 124.934 35.88C125.798 35.88 126.422 35.484 126.806 34.692H135.266C134.978 36.132 134.366 37.428 133.43 38.58C132.518 39.708 131.354 40.608 129.938 41.28C128.546 41.928 127.01 42.252 125.33 42.252C123.314 42.252 121.514 41.832 119.93 40.992C118.37 40.152 117.146 38.952 116.258 37.392C115.394 35.808 114.962 33.96 114.962 31.848C114.962 29.736 115.394 27.9 116.258 26.34C117.146 24.756 118.37 23.544 119.93 22.704C121.514 21.864 123.314 21.444 125.33 21.444C127.346 21.444 129.134 21.864 130.694 22.704C132.278 23.52 133.502 24.696 134.366 26.232C135.254 27.768 135.698 29.58 135.698 31.668ZM127.598 29.76C127.598 29.088 127.382 28.584 126.95 28.248C126.518 27.888 125.978 27.708 125.33 27.708C123.914 27.708 123.086 28.392 122.846 29.76H127.598ZM137.146 31.848C137.146 29.712 137.506 27.864 138.226 26.304C138.97 24.72 139.978 23.52 141.25 22.704C142.522 21.864 143.95 21.444 145.534 21.444C146.854 21.444 147.994 21.72 148.954 22.272C149.914 22.8 150.646 23.532 151.15 24.468V21.696H159.106V42H151.15V39.228C150.646 40.164 149.914 40.908 148.954 41.46C147.994 41.988 146.854 42.252 145.534 42.252C143.95 42.252 142.522 41.844 141.25 41.028C139.978 40.188 138.97 38.988 138.226 37.428C137.506 35.844 137.146 33.984 137.146 31.848ZM151.15 31.848C151.15 30.768 150.874 29.928 150.322 29.328C149.77 28.728 149.062 28.428 148.198 28.428C147.334 28.428 146.626 28.728 146.074 29.328C145.522 29.928 145.246 30.768 145.246 31.848C145.246 32.928 145.522 33.768 146.074 34.368C146.626 34.968 147.334 35.268 148.198 35.268C149.062 35.268 149.77 34.968 150.322 34.368C150.874 33.768 151.15 32.928 151.15 31.848ZM170.687 25.44C171.503 24.264 172.499 23.328 173.675 22.632C174.851 21.912 176.075 21.552 177.347 21.552V30.084H175.079C173.567 30.084 172.451 30.348 171.731 30.876C171.035 31.404 170.687 32.34 170.687 33.684V42H162.695V21.696H170.687V25.44ZM193.719 21.552C196.047 21.552 197.859 22.332 199.155 23.892C200.475 25.452 201.135 27.564 201.135 30.228V42H193.179V31.236C193.179 30.276 192.915 29.52 192.387 28.968C191.883 28.392 191.199 28.104 190.335 28.104C189.447 28.104 188.751 28.392 188.247 28.968C187.743 29.52 187.491 30.276 187.491 31.236V42H179.499V21.696H187.491V24.792C188.115 23.832 188.943 23.052 189.975 22.452C191.031 21.852 192.279 21.552 193.719 21.552ZM215.365 14.82L214.429 31.884H207.589L206.653 14.82H215.365ZM211.009 42.288C209.617 42.288 208.501 41.916 207.661 41.172C206.821 40.428 206.401 39.492 206.401 38.364C206.401 37.212 206.821 36.264 207.661 35.52C208.501 34.752 209.617 34.368 211.009 34.368C212.377 34.368 213.481 34.752 214.321 35.52C215.161 36.264 215.581 37.212 215.581 38.364C215.581 39.492 215.161 40.428 214.321 41.172C213.481 41.916 212.377 42.288 211.009 42.288Z" fill="white"/>
</svg>
