<svg width="123" height="123" viewBox="0 0 123 123" fill="none" xmlns="http://www.w3.org/2000/svg">
<rect width="123" height="123" rx="61.5" fill="#4A4BC7"/>
<path d="M56.208 74L48.792 62.948V74H40.8V48.512H48.792V59.24L56.1 48.512H65.136L56.352 60.716L65.712 74H56.208ZM78.7398 46.82L77.8038 63.884H70.9638L70.0278 46.82H78.7398ZM74.3838 74.288C72.9918 74.288 71.8758 73.916 71.0358 73.172C70.1958 72.428 69.7758 71.492 69.7758 70.364C69.7758 69.212 70.1958 68.264 71.0358 67.52C71.8758 66.752 72.9918 66.368 74.3838 66.368C75.7518 66.368 76.8558 66.752 77.6958 67.52C78.5358 68.264 78.9558 69.212 78.9558 70.364C78.9558 71.492 78.5358 72.428 77.6958 73.172C76.8558 73.916 75.7518 74.288 74.3838 74.288Z" fill="white"/>
</svg>
