<svg width="35" height="35" viewBox="0 0 35 35" fill="none" xmlns="http://www.w3.org/2000/svg">
<path opacity="0.75" d="M35 17.5084C35 27.1491 27.1453 35 17.5 35C7.85473 35 0 27.1491 0 17.5084C0 7.85094 7.85473 0 17.5 0C27.1453 0 35 7.85094 35 17.5084Z" fill="#405DE6"/>
<path d="M24.5 17.5085C24.5 17.9508 24.3608 18.3948 24.0824 18.7503C24.0302 18.82 23.7866 19.1075 23.5952 19.2947L23.4908 19.3967C22.0291 20.9464 18.3924 23.2769 16.5479 24.0237C16.5479 24.0407 15.4517 24.4847 14.9297 24.5H14.8601C14.0597 24.5 13.3114 24.0594 12.9286 23.345C12.7198 22.952 12.5284 21.8123 12.511 21.797C12.3544 20.7746 12.25 19.2096 12.25 17.4915C12.25 15.69 12.3544 14.0553 12.5458 13.0516C12.5458 13.0346 12.7372 12.116 12.859 11.8098C13.0504 11.3693 13.3984 10.9933 13.8335 10.7552C14.1815 10.5868 14.5469 10.5 14.9297 10.5C15.3299 10.5187 16.0781 10.7722 16.3739 10.8913C18.3228 11.6397 22.0465 14.0893 23.4734 15.5863C23.717 15.8244 23.978 16.1153 24.0476 16.1817C24.3434 16.5559 24.5 17.0152 24.5 17.5085Z" fill="white"/>
</svg>
