<svg width="44" height="44" viewBox="0 0 44 44" fill="none" xmlns="http://www.w3.org/2000/svg">
<path d="M44 22.0106C44 34.1302 34.1255 44 22 44C9.87452 44 0 34.1302 0 22.0106C0 9.86975 9.87452 0 22 0C34.1255 0 44 9.86975 44 22.0106Z" fill="#405DE6"/>
<path d="M30.8004 22.0107C30.8004 22.5667 30.6254 23.1249 30.2754 23.5718C30.2098 23.6595 29.9035 24.0209 29.6629 24.2561L29.5316 24.3844C27.6941 26.3326 23.1223 29.2624 20.8035 30.2012C20.8035 30.2226 19.4254 30.7808 18.7691 30.8H18.6816C17.6754 30.8 16.7348 30.2461 16.2535 29.3479C15.991 28.8539 15.7504 27.4211 15.7285 27.4019C15.5316 26.1166 15.4004 24.1492 15.4004 21.9893C15.4004 19.7246 15.5316 17.6695 15.7723 16.4078C15.7723 16.3864 16.0129 15.2316 16.166 14.8467C16.4066 14.2928 16.8441 13.8202 17.391 13.5208C17.8285 13.3091 18.2879 13.2 18.7691 13.2C19.2723 13.2235 20.2129 13.5422 20.5848 13.6919C23.0348 14.6328 27.716 17.7123 29.5098 19.5942C29.816 19.8936 30.1441 20.2592 30.2316 20.3426C30.6035 20.8131 30.8004 21.3905 30.8004 22.0107Z" fill="white"/>
</svg>
